<svg width="25" height="25" viewBox="0 0 25 25" fill="none" xmlns="http://www.w3.org/2000/svg">
<path d="M12.5 0.390625C5.81216 0.390625 0.390625 5.81216 0.390625 12.5C0.390625 19.1878 5.81216 24.6094 12.5 24.6094C19.1878 24.6094 24.6094 19.1878 24.6094 12.5C24.6094 5.81216 19.1878 0.390625 12.5 0.390625ZM18.2194 17.3219C18.1417 17.4131 16.2772 19.5549 12.8556 19.5549C8.72026 19.5549 5.80073 16.466 5.80073 12.4471C5.80073 8.47725 8.82827 5.44512 12.8204 5.44512C16.0897 5.44512 17.7991 7.26714 17.8703 7.34473C17.9579 7.44028 18.0114 7.56221 18.0224 7.69142C18.0333 7.82063 18.0011 7.94981 17.9307 8.05874L16.8379 9.75088C16.6402 10.0569 16.2142 10.1098 15.9476 9.86294C15.9362 9.85249 14.6522 8.69692 12.9261 8.69692C10.6744 8.69692 9.31694 10.3363 9.31694 12.4119C9.31694 14.3456 10.5627 16.3031 12.9438 16.3031C14.8333 16.3031 16.1312 14.9194 16.1441 14.9054C16.3947 14.6336 16.8306 14.6596 17.0479 14.9568L18.2464 16.596C18.3242 16.7024 18.3639 16.832 18.359 16.9637C18.3541 17.0954 18.3049 17.2216 18.2194 17.3219Z" fill="black"/>
</svg>
