<svg width="50" height="50" viewBox="0 0 50 50" fill="none" xmlns="http://www.w3.org/2000/svg">
<path d="M42.0965 3.90576H8.55406C7.34097 3.90576 6.17757 4.38766 5.31978 5.24544C4.462 6.10323 3.9801 7.26663 3.9801 8.47972L3.9801 42.0221C3.9801 43.2352 4.462 44.3986 5.31978 45.2564C6.17757 46.1142 7.34097 46.5961 8.55406 46.5961H21.6327V32.0823H15.6294V25.2509H21.6327V20.0442C21.6327 14.1219 25.1585 10.8506 30.5586 10.8506C33.1448 10.8506 35.8492 11.3118 35.8492 11.3118V17.1245H32.8694C29.9335 17.1245 29.0178 18.9465 29.0178 20.8151V25.2509H35.5719L34.5237 32.0823H29.0178V46.5961H42.0965C43.3095 46.5961 44.4729 46.1142 45.3307 45.2564C46.1885 44.3986 46.6704 43.2352 46.6704 42.0221V8.47972C46.6704 7.26663 46.1885 6.10323 45.3307 5.24544C44.4729 4.38766 43.3095 3.90576 42.0965 3.90576V3.90576Z" fill="#303D3F"/>
</svg>
