<svg width="50" height="50" viewBox="0 0 50 50" fill="none" xmlns="http://www.w3.org/2000/svg">
<path d="M24.968 14.2925C18.9075 14.2925 14.0191 19.181 14.0191 25.2415C14.0191 31.302 18.9075 36.1904 24.968 36.1904C31.0285 36.1904 35.9169 31.302 35.9169 25.2415C35.9169 19.181 31.0285 14.2925 24.968 14.2925ZM24.968 32.3597C21.0515 32.3597 17.8498 29.1674 17.8498 25.2415C17.8498 21.3155 21.042 18.1232 24.968 18.1232C28.894 18.1232 32.0862 21.3155 32.0862 25.2415C32.0862 29.1674 28.8845 32.3597 24.968 32.3597V32.3597ZM38.9186 13.8447C38.9186 15.2645 37.7751 16.3985 36.3648 16.3985C34.945 16.3985 33.811 15.255 33.811 13.8447C33.811 12.4344 34.9545 11.2909 36.3648 11.2909C37.7751 11.2909 38.9186 12.4344 38.9186 13.8447ZM46.1702 16.4366C46.0082 13.0156 45.2268 9.98539 42.7207 7.48877C40.2241 4.99215 37.1938 4.21077 33.7729 4.03924C30.2471 3.83913 19.6794 3.83913 16.1536 4.03924C12.7422 4.20124 9.71193 4.98262 7.20578 7.47924C4.69963 9.97587 3.92778 13.0061 3.75625 16.4271C3.55614 19.9528 3.55614 30.5206 3.75625 34.0463C3.91825 37.4673 4.69963 40.4975 7.20578 42.9942C9.71193 45.4908 12.7327 46.2722 16.1536 46.4437C19.6794 46.6438 30.2471 46.6438 33.7729 46.4437C37.1938 46.2817 40.2241 45.5003 42.7207 42.9942C45.2173 40.4975 45.9987 37.4673 46.1702 34.0463C46.3703 30.5206 46.3703 19.9624 46.1702 16.4366V16.4366ZM41.6153 37.8294C40.8721 39.6971 39.4332 41.136 37.5559 41.8888C34.7448 43.0037 28.0745 42.7464 24.968 42.7464C21.8615 42.7464 15.1816 42.9942 12.3801 41.8888C10.5124 41.1455 9.07348 39.7066 8.32069 37.8294C7.20578 35.0183 7.46307 28.3479 7.46307 25.2415C7.46307 22.135 7.21531 15.4551 8.32069 12.6535C9.06396 10.7858 10.5028 9.34695 12.3801 8.59415C15.1912 7.47924 21.8615 7.73653 24.968 7.73653C28.0745 7.73653 34.7544 7.48877 37.5559 8.59415C39.4236 9.33742 40.8625 10.7763 41.6153 12.6535C42.7302 15.4646 42.4729 22.135 42.4729 25.2415C42.4729 28.3479 42.7302 35.0278 41.6153 37.8294Z" fill="#303D3F"/>
</svg>
