<?xml version="1.0" encoding="UTF-8" standalone="no"?>
<!-- Created with Inkscape (http://www.inkscape.org/) -->

<svg
   width="210mm"
   height="297mm"
   viewBox="0 0 210 297"
   version="1.1"
   id="svg5"
   inkscape:export-filename="/home/marcelo/sdd1TBHD/02-PROJETOS/briefing/logo.png"
   inkscape:export-xdpi="300"
   inkscape:export-ydpi="300"
   inkscape:version="1.1.1 (3bf5ae0d25, 2021-09-20)"
   sodipodi:docname="logo-vetor.svg"
   xmlns:inkscape="http://www.inkscape.org/namespaces/inkscape"
   xmlns:sodipodi="http://sodipodi.sourceforge.net/DTD/sodipodi-0.dtd"
   xmlns="http://www.w3.org/2000/svg"
   xmlns:svg="http://www.w3.org/2000/svg">
  <sodipodi:namedview
     id="namedview7"
     pagecolor="#ffffff"
     bordercolor="#666666"
     borderopacity="1.0"
     inkscape:pageshadow="2"
     inkscape:pageopacity="0.0"
     inkscape:pagecheckerboard="0"
     inkscape:document-units="mm"
     showgrid="false"
     inkscape:snap-nodes="true"
     inkscape:zoom="0.30866481"
     inkscape:cx="351.514"
     inkscape:cy="596.1159"
     inkscape:window-width="1366"
     inkscape:window-height="731"
     inkscape:window-x="1366"
     inkscape:window-y="0"
     inkscape:window-maximized="1"
     inkscape:current-layer="layer1" />
  <defs
     id="defs2">
    <clipPath
       clipPathUnits="userSpaceOnUse"
       id="clipPath3336">
      <path
         d="m 14425,5627 h 8000 v 8001 h -8000 z"
         id="path3334" />
    </clipPath>
    <radialGradient
       fx="0"
       fy="0"
       cx="0"
       cy="0"
       r="1"
       gradientUnits="userSpaceOnUse"
       gradientTransform="matrix(6420.6,0,0,-6420.6,18785.3,9062.74)"
       spreadMethod="pad"
       id="radialGradient3348">
      <stop
         style="stop-opacity:1;stop-color:#ffffff"
         offset="0"
         id="stop3338" />
      <stop
         style="stop-opacity:1;stop-color:#ffffff"
         offset="0.383263"
         id="stop3340" />
      <stop
         style="stop-opacity:1;stop-color:#fefffe"
         offset="0.787666"
         id="stop3342" />
      <stop
         style="stop-opacity:1;stop-color:#f9f9f9"
         offset="0.999192"
         id="stop3344" />
      <stop
         style="stop-opacity:1;stop-color:#f9f9f9"
         offset="1"
         id="stop3346" />
    </radialGradient>
  </defs>
  <g
     inkscape:label="Camada 1"
     inkscape:groupmode="layer"
     id="layer1">
    <path
       d="m -345.63176,278.41698 c -9.61069,0 -17.40736,-0.73381 -17.40736,-1.63697 0,-0.90303 7.79667,-1.63684 17.40736,-1.63684 9.61143,0 17.40599,0.73381 17.40599,1.63684 0,0.90316 -7.79456,1.63697 -17.40599,1.63697 m 0.002,-3.25961 c -9.51921,0 -17.24173,0.72664 -17.24173,1.61919 0,0.896 7.72252,1.6192 17.24173,1.6192 9.52003,0 17.24008,-0.7232 17.24008,-1.6192 0,-0.89255 -7.72005,-1.61919 -17.24008,-1.61919"
       style="fill:#ffffff;fill-opacity:1;fill-rule:nonzero;stroke:none;stroke-width:0.0352778"
       id="path2706" />
    <path
       d="m -345.62954,278.39576 c -9.51921,0 -17.24173,-0.7232 -17.24173,-1.6192 0,-0.89255 7.72252,-1.61919 17.24173,-1.61919 9.52003,0 17.24008,0.72664 17.24008,1.61919 0,0.896 -7.72005,1.6192 -17.24008,1.6192 m 0.002,-3.22434 c -9.42746,0 -17.07572,0.71961 -17.07572,1.60156 0,0.88553 7.64826,1.60514 17.07572,1.60514 9.42865,0 17.07479,-0.71961 17.07479,-1.60514 0,-0.88195 -7.64614,-1.60156 -17.07479,-1.60156"
       style="fill:#ffffff;fill-opacity:1;fill-rule:nonzero;stroke:none;stroke-width:0.0352778"
       id="path2708" />
    <path
       d="m -345.62759,278.37812 c -9.42746,0 -17.07572,-0.71961 -17.07572,-1.60514 0,-0.88195 7.64826,-1.60156 17.07572,-1.60156 9.42865,0 17.07479,0.71961 17.07479,1.60156 0,0.88553 -7.64614,1.60514 -17.07479,1.60514 m 0.002,-3.19264 c -9.33608,0 -16.91005,0.71259 -16.91005,1.5875 0,0.87492 7.57397,1.58406 16.91005,1.58406 9.33704,0 16.90878,-0.70914 16.90878,-1.58406 0,-0.87491 -7.57174,-1.5875 -16.90878,-1.5875"
       style="fill:#ffffff;fill-opacity:1;fill-rule:nonzero;stroke:none;stroke-width:0.0352778"
       id="path2710" />
    <path
       d="m -345.62527,278.35704 c -9.33608,0 -16.91005,-0.70914 -16.91005,-1.58406 0,-0.87491 7.57397,-1.5875 16.91005,-1.5875 9.33704,0 16.90878,0.71259 16.90878,1.5875 0,0.87492 -7.57174,1.58406 -16.90878,1.58406 m 0.002,-3.15737 c -9.24482,0 -16.74453,0.70556 -16.74453,1.56987 0,0.86774 7.49971,1.56986 16.74453,1.56986 9.24567,0 16.74326,-0.70212 16.74326,-1.56986 0,-0.86431 -7.49759,-1.56987 -16.74326,-1.56987"
       style="fill:#fefeff;fill-opacity:1;fill-rule:nonzero;stroke:none;stroke-width:0.0352778"
       id="path2712" />
    <path
       d="m -345.62308,278.3394 c -9.24482,0 -16.74453,-0.70212 -16.74453,-1.56986 0,-0.86431 7.49971,-1.56987 16.74453,-1.56987 9.24567,0 16.74326,0.70556 16.74326,1.56987 0,0.86774 -7.49759,1.56986 -16.74326,1.56986 m 0.002,-3.12209 c -9.15334,0 -16.57875,0.69136 -16.57875,1.54864 0,0.85728 7.42541,1.55222 16.57875,1.55222 9.15364,0 16.57721,-0.69494 16.57721,-1.55222 0,-0.85728 -7.42357,-1.54864 -16.57721,-1.54864"
       style="fill:#fdfefe;fill-opacity:1;fill-rule:nonzero;stroke:none;stroke-width:0.0352778"
       id="path2714" />
    <path
       d="m -345.62072,278.31817 c -9.15334,0 -16.57875,-0.69494 -16.57875,-1.55222 0,-0.85728 7.42541,-1.54864 16.57875,-1.54864 9.15364,0 16.57721,0.69136 16.57721,1.54864 0,0.85728 -7.42357,1.55222 -16.57721,1.55222 m 0.002,-3.0868 c -9.06156,0 -16.41285,0.68791 -16.41285,1.53458 0,0.84667 7.35129,1.53459 16.41285,1.53459 9.06254,0 16.41182,-0.68792 16.41182,-1.53459 0,-0.84667 -7.34928,-1.53458 -16.41182,-1.53458"
       style="fill:#fcfdfd;fill-opacity:1;fill-rule:nonzero;stroke:none;stroke-width:0.0352778"
       id="path2716" />
    <path
       d="m -345.61867,278.30054 c -9.06156,0 -16.41285,-0.68792 -16.41285,-1.53459 0,-0.84667 7.35129,-1.53458 16.41285,-1.53458 9.06254,0 16.41182,0.68791 16.41182,1.53458 0,0.84667 -7.34928,1.53459 -16.41182,1.53459 m 0.002,-3.05498 c -8.97008,0 -16.24707,0.68075 -16.24707,1.51681 0,0.83619 7.27699,1.51694 16.24707,1.51694 8.9709,0 16.24591,-0.68075 16.24591,-1.51694 0,-0.83606 -7.27501,-1.51681 -16.24591,-1.51681"
       style="fill:#fcfcfc;fill-opacity:1;fill-rule:nonzero;stroke:none;stroke-width:0.0352778"
       id="path2718" />
    <path
       d="m -283.54294,278.41698 c -9.61072,0 -17.40746,-0.73381 -17.40746,-1.63697 0,-0.90303 7.79674,-1.63684 17.40746,-1.63684 9.61144,0 17.40606,0.73381 17.40606,1.63684 0,0.90316 -7.79462,1.63697 -17.40606,1.63697 m 0.002,-3.25961 c -9.519,0 -17.24166,0.72664 -17.24166,1.61919 0,0.896 7.72266,1.6192 17.24166,1.6192 9.52042,0 17.24025,-0.7232 17.24025,-1.6192 0,-0.89255 -7.71983,-1.61919 -17.24025,-1.61919"
       style="fill:#ffffff;fill-opacity:1;fill-rule:nonzero;stroke:none;stroke-width:0.0352778"
       id="path2862" />
    <path
       d="m -283.54082,278.39576 c -9.519,0 -17.24166,-0.7232 -17.24166,-1.6192 0,-0.89255 7.72266,-1.61919 17.24166,-1.61919 9.52042,0 17.24025,0.72664 17.24025,1.61919 0,0.896 -7.71983,1.6192 -17.24025,1.6192 m 0.002,-3.22434 c -9.42764,0 -17.07551,0.71961 -17.07551,1.60156 0,0.88553 7.64787,1.60514 17.07551,1.60514 9.42869,0 17.0748,-0.71961 17.0748,-1.60514 0,-0.88195 -7.64611,-1.60156 -17.0748,-1.60156"
       style="fill:#ffffff;fill-opacity:1;fill-rule:nonzero;stroke:none;stroke-width:0.0352778"
       id="path2864" />
    <path
       d="m -283.5387,278.37812 c -9.42764,0 -17.07551,-0.71961 -17.07551,-1.60514 0,-0.88195 7.64787,-1.60156 17.07551,-1.60156 9.42869,0 17.0748,0.71961 17.0748,1.60156 0,0.88553 -7.64611,1.60514 -17.0748,1.60514 m 0.002,-3.19264 c -9.33627,0 -16.91041,0.71259 -16.91041,1.5875 0,0.87492 7.57414,1.58406 16.91041,1.58406 9.33697,0 16.90864,-0.70914 16.90864,-1.58406 0,-0.87491 -7.57167,-1.5875 -16.90864,-1.5875"
       style="fill:#ffffff;fill-opacity:1;fill-rule:nonzero;stroke:none;stroke-width:0.0352778"
       id="path2866" />
    <path
       d="m -283.53623,278.35704 c -9.33627,0 -16.91041,-0.70914 -16.91041,-1.58406 0,-0.87491 7.57414,-1.5875 16.91041,-1.5875 9.33697,0 16.90864,0.71259 16.90864,1.5875 0,0.87492 -7.57167,1.58406 -16.90864,1.58406 m 0.002,-3.15737 c -9.24524,0 -16.74459,0.70556 -16.74459,1.56987 0,0.86774 7.49935,1.56986 16.74459,1.56986 9.24525,0 16.74319,-0.70212 16.74319,-1.56986 0,-0.86431 -7.49794,-1.56987 -16.74319,-1.56987"
       style="fill:#fefeff;fill-opacity:1;fill-rule:nonzero;stroke:none;stroke-width:0.0352778"
       id="path2868" />
    <path
       d="m -283.53412,278.3394 c -9.24524,0 -16.74459,-0.70212 -16.74459,-1.56986 0,-0.86431 7.49935,-1.56987 16.74459,-1.56987 9.24525,0 16.74319,0.70556 16.74319,1.56987 0,0.86774 -7.49794,1.56986 -16.74319,1.56986 m 0.002,-3.12209 c -9.15352,0 -16.57879,0.69136 -16.57879,1.54864 0,0.85728 7.42527,1.55222 16.57879,1.55222 9.15353,0 16.57703,-0.69494 16.57703,-1.55222 0,-0.85728 -7.4235,-1.54864 -16.57703,-1.54864"
       style="fill:#fdfefe;fill-opacity:1;fill-rule:nonzero;stroke:none;stroke-width:0.0352778"
       id="path2870" />
    <path
       d="m -283.53165,278.31817 c -9.15352,0 -16.57879,-0.69494 -16.57879,-1.55222 0,-0.85728 7.42527,-1.54864 16.57879,-1.54864 9.15353,0 16.57703,0.69136 16.57703,1.54864 0,0.85728 -7.4235,1.55222 -16.57703,1.55222 m 0.002,-3.0868 c -9.06145,0 -16.41264,0.68791 -16.41264,1.53458 0,0.84667 7.35119,1.53459 16.41264,1.53459 9.06286,0 16.41193,-0.68792 16.41193,-1.53459 0,-0.84667 -7.34907,-1.53458 -16.41193,-1.53458"
       style="fill:#fcfdfd;fill-opacity:1;fill-rule:nonzero;stroke:none;stroke-width:0.0352778"
       id="path2872" />
    <path
       d="m -283.52988,278.30054 c -9.06145,0 -16.41264,-0.68792 -16.41264,-1.53459 0,-0.84667 7.35119,-1.53458 16.41264,-1.53458 9.06286,0 16.41193,0.68791 16.41193,1.53458 0,0.84667 -7.34907,1.53459 -16.41193,1.53459 m 0.002,-3.05498 c -8.96972,0 -16.24682,0.68075 -16.24682,1.51681 0,0.83619 7.2771,1.51694 16.24682,1.51694 8.97114,0 16.24613,-0.68075 16.24613,-1.51694 0,-0.83606 -7.27499,-1.51681 -16.24613,-1.51681"
       style="fill:#fcfcfc;fill-opacity:1;fill-rule:nonzero;stroke:none;stroke-width:0.0352778"
       id="path2874" />
    <path
       d="m -221.30446,278.41698 c -9.61073,0 -17.40747,-0.73381 -17.40747,-1.63697 0,-0.90303 7.79674,-1.63684 17.40747,-1.63684 9.61143,0 17.40605,0.73381 17.40605,1.63684 0,0.90316 -7.79462,1.63697 -17.40605,1.63697 m 0.002,-3.25961 c -9.519,0 -17.24166,0.72664 -17.24166,1.61919 0,0.896 7.72266,1.6192 17.24166,1.6192 9.52042,0 17.24025,-0.7232 17.24025,-1.6192 0,-0.89255 -7.71983,-1.61919 -17.24025,-1.61919"
       style="fill:#ffffff;fill-opacity:1;fill-rule:nonzero;stroke:none;stroke-width:0.0352778"
       id="path3018" />
    <path
       d="m -221.30235,278.39576 c -9.519,0 -17.24166,-0.7232 -17.24166,-1.6192 0,-0.89255 7.72266,-1.61919 17.24166,-1.61919 9.52042,0 17.24025,0.72664 17.24025,1.61919 0,0.896 -7.71983,1.6192 -17.24025,1.6192 m 0.002,-3.22434 c -9.42764,0 -17.07586,0.71961 -17.07586,1.60156 0,0.88553 7.64822,1.60514 17.07586,1.60514 9.42834,0 17.0748,-0.71961 17.0748,-1.60514 0,-0.88195 -7.64646,-1.60156 -17.0748,-1.60156"
       style="fill:#ffffff;fill-opacity:1;fill-rule:nonzero;stroke:none;stroke-width:0.0352778"
       id="path3020" />
    <path
       d="m -221.30023,278.37812 c -9.42764,0 -17.07586,-0.71961 -17.07586,-1.60514 0,-0.88195 7.64822,-1.60156 17.07586,-1.60156 9.42834,0 17.0748,0.71961 17.0748,1.60156 0,0.88553 -7.64646,1.60514 -17.0748,1.60514 m 0.002,-3.19264 c -9.33627,0 -16.91041,0.71259 -16.91041,1.5875 0,0.87492 7.57414,1.58406 16.91041,1.58406 9.33697,0 16.90864,-0.70914 16.90864,-1.58406 0,-0.87491 -7.57167,-1.5875 -16.90864,-1.5875"
       style="fill:#ffffff;fill-opacity:1;fill-rule:nonzero;stroke:none;stroke-width:0.0352778"
       id="path3022" />
    <path
       d="m -221.29776,278.35704 c -9.33627,0 -16.91041,-0.70914 -16.91041,-1.58406 0,-0.87491 7.57414,-1.5875 16.91041,-1.5875 9.33697,0 16.90864,0.71259 16.90864,1.5875 0,0.87492 -7.57167,1.58406 -16.90864,1.58406 m 0.002,-3.15737 c -9.24524,0 -16.74459,0.70556 -16.74459,1.56987 0,0.86774 7.49935,1.56986 16.74459,1.56986 9.24525,0 16.74319,-0.70212 16.74319,-1.56986 0,-0.86431 -7.49794,-1.56987 -16.74319,-1.56987"
       style="fill:#fefeff;fill-opacity:1;fill-rule:nonzero;stroke:none;stroke-width:0.0352778"
       id="path3024" />
    <path
       d="m -221.29565,278.3394 c -9.24524,0 -16.74459,-0.70212 -16.74459,-1.56986 0,-0.86431 7.49935,-1.56987 16.74459,-1.56987 9.24525,0 16.74319,0.70556 16.74319,1.56987 0,0.86774 -7.49794,1.56986 -16.74319,1.56986 m 0.002,-3.12209 c -9.15352,0 -16.57914,0.69136 -16.57914,1.54864 0,0.85728 7.42562,1.55222 16.57914,1.55222 9.15353,0 16.57668,-0.69494 16.57668,-1.55222 0,-0.85728 -7.42315,-1.54864 -16.57668,-1.54864"
       style="fill:#fdfefe;fill-opacity:1;fill-rule:nonzero;stroke:none;stroke-width:0.0352778"
       id="path3026" />
    <path
       d="m -221.29318,278.31817 c -9.15352,0 -16.57914,-0.69494 -16.57914,-1.55222 0,-0.85728 7.42562,-1.54864 16.57914,-1.54864 9.15353,0 16.57668,0.69136 16.57668,1.54864 0,0.85728 -7.42315,1.55222 -16.57668,1.55222 m 0.002,-3.0868 c -9.06145,0 -16.41264,0.68791 -16.41264,1.53458 0,0.84667 7.35119,1.53459 16.41264,1.53459 9.06286,0 16.41193,-0.68792 16.41193,-1.53459 0,-0.84667 -7.34907,-1.53458 -16.41193,-1.53458"
       style="fill:#fcfdfd;fill-opacity:1;fill-rule:nonzero;stroke:none;stroke-width:0.0352778"
       id="path3028" />
    <path
       d="m -221.29141,278.30054 c -9.06145,0 -16.41264,-0.68792 -16.41264,-1.53459 0,-0.84667 7.35119,-1.53458 16.41264,-1.53458 9.06286,0 16.41193,0.68791 16.41193,1.53458 0,0.84667 -7.34907,1.53459 -16.41193,1.53459 m 0.002,-3.05498 c -8.96972,0 -16.24718,0.68075 -16.24718,1.51681 0,0.83619 7.27746,1.51694 16.24718,1.51694 8.97114,0 16.24613,-0.68075 16.24613,-1.51694 0,-0.83606 -7.27499,-1.51681 -16.24613,-1.51681"
       style="fill:#fcfcfc;fill-opacity:1;fill-rule:nonzero;stroke:none;stroke-width:0.0352778"
       id="path3030" />
    <path
       d="m -159.74474,278.41698 c -9.61072,0 -17.40747,-0.73381 -17.40747,-1.63697 0,-0.90303 7.79675,-1.63684 17.40747,-1.63684 9.61143,0 17.40606,0.73381 17.40606,1.63684 0,0.90316 -7.79463,1.63697 -17.40606,1.63697 m 0.002,-3.25961 c -9.51901,0 -17.24166,0.72664 -17.24166,1.61919 0,0.896 7.72265,1.6192 17.24166,1.6192 9.52006,0 17.24025,-0.7232 17.24025,-1.6192 0,-0.89255 -7.72019,-1.61919 -17.24025,-1.61919"
       style="fill:#ffffff;fill-opacity:1;fill-rule:nonzero;stroke:none;stroke-width:0.0352778"
       id="path3174" />
    <path
       d="m -159.74262,278.39576 c -9.51901,0 -17.24166,-0.7232 -17.24166,-1.6192 0,-0.89255 7.72265,-1.61919 17.24166,-1.61919 9.52006,0 17.24025,0.72664 17.24025,1.61919 0,0.896 -7.72019,1.6192 -17.24025,1.6192 m 0.002,-3.22434 c -9.42763,0 -17.07585,0.71961 -17.07585,1.60156 0,0.88553 7.64822,1.60514 17.07585,1.60514 9.42834,0 17.07445,-0.71961 17.07445,-1.60514 0,-0.88195 -7.64611,-1.60156 -17.07445,-1.60156"
       style="fill:#ffffff;fill-opacity:1;fill-rule:nonzero;stroke:none;stroke-width:0.0352778"
       id="path3176" />
    <path
       d="m -159.74051,278.37812 c -9.42763,0 -17.07585,-0.71961 -17.07585,-1.60514 0,-0.88195 7.64822,-1.60156 17.07585,-1.60156 9.42834,0 17.07445,0.71961 17.07445,1.60156 0,0.88553 -7.64611,1.60514 -17.07445,1.60514 m 0.002,-3.19264 c -9.33626,0 -16.9104,0.71259 -16.9104,1.5875 0,0.87492 7.57414,1.58406 16.9104,1.58406 9.33697,0 16.90864,-0.70914 16.90864,-1.58406 0,-0.87491 -7.57167,-1.5875 -16.90864,-1.5875"
       style="fill:#ffffff;fill-opacity:1;fill-rule:nonzero;stroke:none;stroke-width:0.0352778"
       id="path3178" />
    <path
       d="m -159.73804,278.35704 c -9.33626,0 -16.9104,-0.70914 -16.9104,-1.58406 0,-0.87491 7.57414,-1.5875 16.9104,-1.5875 9.33697,0 16.90864,0.71259 16.90864,1.5875 0,0.87492 -7.57167,1.58406 -16.90864,1.58406 m 0.002,-3.15737 c -9.24525,0 -16.7446,0.70556 -16.7446,1.56987 0,0.86774 7.49935,1.56986 16.7446,1.56986 9.24525,0 16.74319,-0.70212 16.74319,-1.56986 0,-0.86431 -7.49794,-1.56987 -16.74319,-1.56987"
       style="fill:#fefeff;fill-opacity:1;fill-rule:nonzero;stroke:none;stroke-width:0.0352778"
       id="path3180" />
    <path
       d="m -159.73592,278.3394 c -9.24525,0 -16.7446,-0.70212 -16.7446,-1.56986 0,-0.86431 7.49935,-1.56987 16.7446,-1.56987 9.24525,0 16.74319,0.70556 16.74319,1.56987 0,0.86774 -7.49794,1.56986 -16.74319,1.56986 m 0.002,-3.12209 c -9.15318,0 -16.5788,0.69136 -16.5788,1.54864 0,0.85728 7.42562,1.55222 16.5788,1.55222 9.15388,0 16.57703,-0.69494 16.57703,-1.55222 0,-0.85728 -7.42315,-1.54864 -16.57703,-1.54864"
       style="fill:#fdfefe;fill-opacity:1;fill-rule:nonzero;stroke:none;stroke-width:0.0352778"
       id="path3182" />
    <path
       d="m -159.7338,278.31817 c -9.15318,0 -16.5788,-0.69494 -16.5788,-1.55222 0,-0.85728 7.42562,-1.54864 16.5788,-1.54864 9.15388,0 16.57703,0.69136 16.57703,1.54864 0,0.85728 -7.42315,1.55222 -16.57703,1.55222 m 0.002,-3.0868 c -9.06145,0 -16.41263,0.68791 -16.41263,1.53458 0,0.84667 7.35118,1.53459 16.41263,1.53459 9.06287,0 16.41193,-0.68792 16.41193,-1.53459 0,-0.84667 -7.34906,-1.53458 -16.41193,-1.53458"
       style="fill:#fcfdfd;fill-opacity:1;fill-rule:nonzero;stroke:none;stroke-width:0.0352778"
       id="path3184" />
    <path
       d="m -159.73169,278.30054 c -9.06145,0 -16.41263,-0.68792 -16.41263,-1.53459 0,-0.84667 7.35118,-1.53458 16.41263,-1.53458 9.06287,0 16.41193,0.68791 16.41193,1.53458 0,0.84667 -7.34906,1.53459 -16.41193,1.53459 m 0.002,-3.05498 c -8.96973,0 -16.24718,0.68075 -16.24718,1.51681 0,0.83619 7.27745,1.51694 16.24718,1.51694 8.97114,0 16.24612,-0.68075 16.24612,-1.51694 0,-0.83606 -7.27498,-1.51681 -16.24612,-1.51681"
       style="fill:#fcfcfc;fill-opacity:1;fill-rule:nonzero;stroke:none;stroke-width:0.0352778"
       id="path3186" />
    <g
       id="g71153"
       transform="translate(11.389428,27.139577)"
       inkscape:export-filename="/home/marcelo/sdd1TBHD/02-PROJETOS/briefing/g71153.png"
       inkscape:export-xdpi="300"
       inkscape:export-ydpi="300">
      <path
         d="m 66.624818,62.433338 c 0,1.06429 -0.366416,1.982077 -1.681884,1.982077 -1.305568,0 -1.671988,-0.917787 -1.671988,-1.982077 V 51.463286 c 0,-1.052311 0.366416,-1.982065 1.671988,-1.982065 1.315464,0 1.681884,0.929754 1.681884,1.982065 z M 64.942934,48.147904 c -0.959563,0 -1.747779,-0.929009 -1.747779,-2.066531 0,-1.137498 0.788216,-2.067253 1.747779,-2.067253 0.970114,0 1.74714,0.929755 1.74714,2.067253 0,1.137522 -0.777026,2.066531 -1.74714,2.066531 z M 43.846877,64.965476 h 5.176137 v -15.00743 h -5.30532 l 21.22524,-25.159129 21.236445,25.159129 h -5.306625 v 15.00743 h 4.119689 v 7.094168 H 43.846877 Z m 7.959287,-41.058918 h 11.3679 L 62.666597,24.60386 52.053977,37.886344 51.461489,37.678533 V 24.31012 23.906534 h 0.344671"
         style="fill:#303d3f;fill-opacity:1;fill-rule:evenodd;stroke:none;stroke-width:0.0701826"
         id="path3392-3" />
      <g
         aria-label="HOUSE"
         id="text9603"
         style="font-size:41.9958px;line-height:1.25;font-family:Anton;-inkscape-font-specification:Anton;fill:#897e41;stroke-width:1.0499">
        <path
           d="M 51.240734,92.299601 V 107.12527 H 44.063718 V 74.459589 h 7.177016 v 11.667778 h 3.403957 V 74.459589 h 7.177016 V 107.12527 H 54.644691 V 92.299601 Z"
           id="path70985" />
        <path
           d="M 64.959089,98.307789 V 82.743916 q 0,-4.080646 2.194117,-6.315774 2.214622,-2.255634 6.643867,-2.317151 4.552279,0.06152 6.746395,2.317151 2.214623,2.235128 2.214623,6.315774 v 15.563873 q 0,1.989061 -0.512645,3.629521 -0.492138,1.61995 -1.517426,2.89131 -1.025288,1.27136 -2.788783,1.96855 -1.74299,0.6972 -4.01913,0.63568 -2.399174,0.0615 -4.162669,-0.63568 -1.74299,-0.69719 -2.768278,-1.96855 -1.025288,-1.27136 -1.537932,-2.89131 -0.492139,-1.64046 -0.492139,-3.629521 z m 8.899501,2.727271 q 0.389609,0 0.67669,-0.14354 0.307587,-0.16405 0.471633,-0.47164 0.184551,-0.32809 0.28708,-0.61517 0.102529,-0.287081 0.143541,-0.758713 0.04101,-0.492138 0.04101,-0.738208 0.02051,-0.266574 0.02051,-0.717701 0,-0.102529 0,-0.164046 V 84.302354 q 0,-0.123034 0,-0.492138 0.02051,-0.369104 0,-0.553656 0,-0.184551 -0.02051,-0.533149 0,-0.369104 -0.06152,-0.553656 -0.04101,-0.205058 -0.123035,-0.492138 -0.06152,-0.307587 -0.184552,-0.451127 -0.123034,-0.164046 -0.28708,-0.328092 -0.164046,-0.184552 -0.410115,-0.246069 -0.24607,-0.08202 -0.553656,-0.08202 -0.430621,0 -0.758713,0.14354 -0.307587,0.14354 -0.492139,0.471632 -0.184551,0.307587 -0.307586,0.574162 -0.123035,0.246069 -0.164046,0.758713 -0.04101,0.492138 -0.04101,0.717702 0,0.205057 0,0.717701 0,0.08202 0,0.143541 0,0.06152 0,0.123034 v 13.123688 q 0,0.451126 0,0.717701 0.02051,0.266575 0.06152,0.779219 0.04101,0.512644 0.14354,0.840737 0.123035,0.307586 0.307586,0.656181 0.184552,0.3486 0.492139,0.53315 0.328092,0.16405 0.758713,0.16405 z"
           id="path70987" />
        <path
           d="M 85.792946,98.471836 V 74.459589 h 7.01297 v 23.376568 q 0,0.04101 0,0.14354 0,0.53315 0,0.840737 0.02051,0.307586 0.102529,0.840736 0.102529,0.53315 0.266575,0.84074 0.184552,0.30758 0.53315,0.55365 0.348598,0.22556 0.861242,0.22556 0.430621,0 0.738207,-0.14354 0.328092,-0.14354 0.512644,-0.43062 0.184552,-0.30758 0.287081,-0.57416 0.123034,-0.287078 0.164046,-0.738205 0.04101,-0.471633 0.04101,-0.717702 0.02051,-0.246069 0.02051,-0.697196 0,-0.102529 0,-0.14354 V 74.459589 h 7.01297 v 24.012247 q 0,4.429244 -2.1326,6.725894 -2.112092,2.29664 -6.602854,2.27613 -4.572785,0.0205 -6.705384,-2.27613 -2.112093,-2.29665 -2.112093,-6.725894 z"
           id="path70989" />
        <path
           d="m 115.32124,107.49437 q -5.02391,0 -7.17702,-2.29664 -2.1326,-2.29665 -2.1326,-7.094998 v -3.198899 h 7.13601 v 2.932324 q 0,3.157883 1.72248,3.157883 0.79973,0 1.25085,-0.61517 0.47164,-0.615171 0.47164,-1.619954 0,-1.312369 -0.36911,-2.214622 -0.34859,-0.902254 -1.0868,-1.701978 -0.7177,-0.820231 -2.37867,-2.255634 l -3.05536,-2.645243 q -3.69104,-3.178393 -3.69104,-7.177017 0,-4.347221 2.21463,-6.459315 2.23512,-2.132599 6.13122,-2.132599 0.10253,0 0.18455,0 0.082,0 1.08681,0 1.00478,0 2.58372,0.471632 1.57895,0.451127 2.80929,1.537933 1.23035,1.066299 1.84552,2.993841 0.61517,1.907036 0.61517,4.675313 h -7.32055 l -0.041,-1.968553 q -0.0205,-0.553655 -0.47163,-0.984276 -0.45112,-0.430621 -1.00478,-0.430621 -0.7177,0 -1.23035,0.451127 -0.49213,0.430621 -0.49213,1.127816 0,1.394392 2.03007,3.034853 l 4.36772,3.526991 q 1.0663,0.861242 1.84552,1.763496 0.79973,0.881747 1.25085,1.763495 0.47164,0.861242 0.75872,1.578944 0.28708,0.697196 0.38961,1.537932 0.12303,0.82023 0.14354,1.250851 0.0205,0.410116 0.0205,1.086806 0,1.722484 -0.22556,3.137382 -0.22556,1.39439 -0.79973,2.70676 -0.57416,1.29186 -1.51742,2.17361 -0.92276,0.86124 -2.41968,1.37389 -1.47642,0.51264 -3.44497,0.51264 z"
           id="path70991" />
        <path
           d="M 126.31233,107.12527 V 74.459589 h 14.43606 v 6.33628 h -7.095 v 6.377292 h 6.80791 v 6.131223 h -6.80791 v 7.443596 h 7.56663 v 6.37729 z"
           id="path70993" />
      </g>
      <g
         aria-label="SAFE"
         id="text26405"
         style="font-size:23.7139px;line-height:1.25;font-family:Ubuntu;-inkscape-font-specification:Ubuntu;fill:#303d3f;stroke-width:0.592845">
        <path
           d="m 93.680087,125.17268 q 3.604513,0 3.604513,-2.46625 0,-0.75884 -0.331995,-1.28055 -0.30828,-0.54542 -0.8537,-0.92484 -0.54542,-0.40314 -1.256837,-0.6877 -0.687703,-0.28457 -1.470262,-0.56914 -0.901128,-0.30828 -1.7074,-0.6877 -0.806273,-0.40314 -1.39912,-0.92484 -0.592848,-0.54542 -0.948556,-1.28055 -0.331995,-0.73513 -0.331995,-1.77855 0,-2.15796 1.470262,-3.36737 1.470262,-1.20941 4.055077,-1.20941 1.493975,0 2.703384,0.332 1.233123,0.30828 1.802257,0.6877 l -0.735131,1.8734 q -0.497992,-0.30828 -1.493976,-0.59285 -0.97227,-0.30828 -2.276534,-0.30828 -0.66399,0 -1.233123,0.14228 -0.569134,0.14229 -0.995984,0.42685 -0.42685,0.28457 -0.687703,0.73513 -0.237139,0.42685 -0.237139,1.0197 0,0.66399 0.260853,1.11456 0.260853,0.45056 0.735131,0.80627 0.474278,0.33199 1.090839,0.61656 0.640275,0.28457 1.39912,0.56913 1.067126,0.42685 1.94454,0.8537 0.901128,0.42685 1.541403,1.0197 0.66399,0.59285 1.019698,1.42283 0.355709,0.80628 0.355709,1.96826 0,2.15796 -1.588832,3.31994 -1.565117,1.16199 -4.434499,1.16199 -0.97227,0 -1.802256,-0.14229 -0.806273,-0.11857 -1.446548,-0.28456 -0.640275,-0.18972 -1.114553,-0.37943 -0.450565,-0.21342 -0.711417,-0.35571 l 0.687703,-1.89711 q 0.545419,0.30828 1.659973,0.68771 1.114553,0.37942 2.727098,0.37942 z"
           id="path71033" />
        <path
           d="m 113.45747,126.80894 q -0.40314,-1.06713 -0.75885,-2.08683 -0.3557,-1.04341 -0.73513,-2.11053 h -7.44616 l -1.49398,4.19736 h -2.3951 q 0.94856,-2.60853 1.77854,-4.81392 0.82999,-2.22911 1.61255,-4.22108 0.80627,-1.99197 1.58883,-3.79422 0.78256,-1.82597 1.63626,-3.60452 h 2.11053 q 0.85371,1.77855 1.63626,3.60452 0.78256,1.80225 1.56512,3.79422 0.80627,1.99197 1.63626,4.22108 0.82999,2.20539 1.77854,4.81392 z m -2.15797,-6.09448 q -0.75884,-2.0631 -1.51769,-3.98393 -0.73513,-1.94454 -1.5414,-3.72308 -0.82998,1.77854 -1.58883,3.72308 -0.73513,1.92083 -1.47026,3.98393 z"
           id="path71035" />
        <path
           d="M 118.20021,126.80894 V 110.3752 h 9.91241 v 1.96826 h -7.61216 v 4.9562 h 6.75846 v 1.94454 h -6.75846 v 7.56474 z"
           id="path71037" />
        <path
           d="M 130.93454,126.80894 V 110.3752 h 10.03098 v 1.96826 h -7.73073 v 4.88506 h 6.87703 v 1.92083 h -6.87703 v 5.69133 h 8.32358 v 1.96826 z"
           id="path71039" />
      </g>
    </g>
  </g>
</svg>
