<svg width="104" height="109" viewBox="0 0 104 109" fill="none" xmlns="http://www.w3.org/2000/svg">
<path fill-rule="evenodd" clip-rule="evenodd" d="M24.4722 40.8884C24.4722 42.0028 24.0849 42.9639 22.6942 42.9639C21.3141 42.9639 20.9267 42.0028 20.9267 40.8884V29.4012C20.9267 28.2993 21.3141 27.3257 22.6942 27.3257C24.0849 27.3257 24.4722 28.2993 24.4722 29.4012V40.8884ZM22.6942 25.9295C21.6798 25.9295 20.8466 24.9567 20.8466 23.7656C20.8466 22.5745 21.6798 21.6009 22.6942 21.6009C23.7198 21.6009 24.5412 22.5745 24.5412 23.7656C24.5412 24.9567 23.7198 25.9295 22.6942 25.9295ZM0.392701 43.5399H5.86462V27.825H0.256134L22.6942 1.47992L45.1442 27.825H39.5343V43.5399H43.8894V50.9684H0.392701V43.5399ZM8.8068 0.545495H20.8243L20.2878 1.27567L9.06878 15.1843L8.44243 14.9667V0.968081V0.545471H8.8068" fill="#303D3F"/>
<path d="M8.20902 72.1624V87.6869H0.621887V53.4815H8.20902V65.6993H11.8075V53.4815H19.3946V87.6869H11.8075V72.1624H8.20902Z" fill="#897E41"/>
<path d="M22.7113 78.4538V62.1563C22.7113 59.3077 23.4844 57.1032 25.0308 55.5428C26.5915 53.9682 28.9327 53.1594 32.0543 53.1165C35.2626 53.1594 37.6399 53.9682 39.1862 55.5428C40.747 57.1032 41.5274 59.3077 41.5274 62.1563V78.4538C41.5274 79.8424 41.3467 81.1093 40.9854 82.2544C40.6386 83.3853 40.1039 84.3945 39.3813 85.2821C38.6587 86.1696 37.676 86.8567 36.4332 87.3434C35.2048 87.8301 33.7885 88.052 32.1844 88.009C30.4935 88.052 29.0267 87.8301 27.7838 87.3434C26.5554 86.8567 25.5799 86.1696 24.8573 85.2821C24.1348 84.3945 23.5928 83.3853 23.2315 82.2544C22.8847 81.1093 22.7113 79.8424 22.7113 78.4538V78.4538ZM32.1193 81.3097C32.3939 81.3097 32.6324 81.2596 32.8347 81.1594C33.0515 81.0448 33.2176 80.8802 33.3333 80.6655C33.4633 80.4365 33.5645 80.2217 33.6367 80.0213C33.709 79.8209 33.7596 79.5561 33.7885 79.2268C33.8174 78.8833 33.8318 78.6256 33.8318 78.4538C33.8463 78.2678 33.8535 78.0172 33.8535 77.7023C33.8535 77.6307 33.8535 77.5735 33.8535 77.5305V63.7882C33.8535 63.7023 33.8535 63.5306 33.8535 63.2729C33.868 63.0152 33.868 62.822 33.8535 62.6931C33.8535 62.5643 33.8463 62.3782 33.8318 62.1348C33.8318 61.8772 33.8102 61.6839 33.7668 61.5551C33.7379 61.4119 33.6946 61.2402 33.6367 61.0398C33.5934 60.825 33.5284 60.6676 33.4416 60.5674C33.3549 60.4528 33.2538 60.3383 33.1382 60.2238C33.0225 60.095 32.878 60.0091 32.7046 59.9661C32.5312 59.9089 32.3361 59.8803 32.1193 59.8803C31.8158 59.8803 31.5485 59.9304 31.3173 60.0306C31.1005 60.1308 30.9271 60.2954 30.797 60.5244C30.6669 60.7391 30.5585 60.9396 30.4718 61.1256C30.3851 61.2974 30.3273 61.5623 30.2984 61.9201C30.2695 62.2637 30.2551 62.5142 30.2551 62.6717C30.2551 62.8148 30.2551 63.0653 30.2551 63.4232C30.2551 63.4804 30.2551 63.5305 30.2551 63.5735C30.2551 63.6164 30.2551 63.6594 30.2551 63.7023V77.4446C30.2551 77.7596 30.2551 78.0101 30.2551 78.1962C30.2695 78.3823 30.2912 78.6543 30.3201 79.0121C30.349 79.37 30.3996 79.6635 30.4718 79.8925C30.5585 80.1072 30.6669 80.3363 30.797 80.5796C30.9271 80.823 31.1005 81.0091 31.3173 81.1379C31.5485 81.2524 31.8158 81.3097 32.1193 81.3097V81.3097Z" fill="#897E41"/>
<path d="M44.7357 78.6256V53.4815H52.1494V77.96C52.1494 77.9886 52.1494 78.0387 52.1494 78.1103C52.1494 78.4825 52.1494 78.7759 52.1494 78.9907C52.1638 79.2054 52.2 79.4988 52.2578 79.871C52.33 80.2432 52.424 80.5367 52.5396 80.7514C52.6696 80.9661 52.8575 81.1594 53.1032 81.3311C53.3489 81.4886 53.6523 81.5673 54.0136 81.5673C54.3171 81.5673 54.5773 81.5172 54.794 81.417C55.0253 81.3168 55.2059 81.1665 55.336 80.9661C55.466 80.7514 55.5672 80.551 55.6395 80.3649C55.7262 80.1645 55.784 79.9068 55.8129 79.5919C55.8418 79.2626 55.8562 79.0121 55.8562 78.8404C55.8707 78.6686 55.8779 78.4252 55.8779 78.1103C55.8779 78.0387 55.8779 77.9886 55.8779 77.96V53.4815H63.2916V78.6256C63.2916 81.7176 62.5401 84.0653 61.0372 85.6686C59.5486 87.2718 57.2219 88.0663 54.057 88.052C50.8343 88.0663 48.4714 87.2718 46.9684 85.6686C45.4799 84.0653 44.7357 81.7176 44.7357 78.6256V78.6256Z" fill="#897E41"/>
<path d="M75.9513 88.074C72.4106 88.074 69.8816 87.2723 68.3641 85.6691C66.8612 84.0658 66.1097 81.5893 66.1097 78.2396V74.8899H73.6535V77.9605C73.6535 80.165 74.2604 81.2672 75.4744 81.2672C76.038 81.2672 76.4788 81.0525 76.7967 80.6231C77.1291 80.1936 77.2953 79.6282 77.2953 78.9268C77.2953 78.0106 77.1652 77.2376 76.9051 76.6077C76.6594 75.9779 76.2764 75.3838 75.7562 74.8255C75.2504 74.2529 74.4122 73.4656 73.2416 72.4636L70.0116 69.6936C67.4103 67.4748 66.1097 64.9697 66.1097 62.1783C66.1097 59.1436 66.8901 56.889 68.4509 55.4145C70.0261 53.9258 72.1866 53.1814 74.9324 53.1814C75.0047 53.1814 75.0697 53.1814 75.1275 53.1814C75.1853 53.1814 75.5683 53.1814 76.2764 53.1814C76.9846 53.1814 77.895 53.346 79.0078 53.6753C80.1206 53.9902 81.1105 54.527 81.9776 55.2857C82.8447 56.0301 83.4951 57.075 83.9286 58.4206C84.3621 59.7519 84.5789 61.3838 84.5789 63.3163H76.8401L76.7967 61.255C76.7823 60.8685 76.6161 60.5249 76.2981 60.2243C75.9802 59.9237 75.6261 59.7734 75.2359 59.7734C74.7301 59.7734 74.2966 59.9309 73.9353 60.2458C73.5885 60.5464 73.415 60.9401 73.415 61.4268C73.415 62.4002 74.1304 63.4595 75.5611 64.6047L80.1784 68.2979C80.9299 68.8992 81.5802 69.5147 82.1294 70.1446C82.693 70.7601 83.1338 71.3756 83.4517 71.9912C83.7841 72.5924 84.0515 73.1435 84.2538 73.6446C84.4561 74.1313 84.5934 74.6681 84.6657 75.255C84.7524 75.8276 84.8029 76.2642 84.8174 76.5648C84.8318 76.8511 84.8391 77.2304 84.8391 77.7028C84.8391 78.9053 84.7596 80.0004 84.6006 80.9881C84.4417 81.9615 84.1598 82.9063 83.7552 83.8224C83.3505 84.7243 82.8158 85.483 82.1511 86.0985C81.5007 86.6997 80.6481 87.1793 79.5931 87.5372C78.5526 87.895 77.3387 88.074 75.9513 88.074H75.9513Z" fill="#897E41"/>
<path d="M87.5704 87.6869V53.4815H102.831V60.1165H95.331V66.7944H102.528V73.2146H95.331V81.009H103.33V87.6869H87.5704Z" fill="#897E41"/>
<path d="M53.0735 106.585C55.6138 106.585 56.884 105.724 56.884 104.003C56.884 103.473 56.767 103.026 56.533 102.662C56.3158 102.281 56.0149 101.958 55.6305 101.693C55.2461 101.412 54.8033 101.172 54.3019 100.973C53.8172 100.774 53.2991 100.576 52.7476 100.377C52.1125 100.162 51.5109 99.9219 50.9426 99.6571C50.3744 99.3756 49.8814 99.0528 49.4636 98.6886C49.0458 98.3079 48.7115 97.8609 48.4608 97.3477C48.2268 96.8345 48.1098 96.2137 48.1098 95.4853C48.1098 93.9789 48.6279 92.8035 49.6641 91.9592C50.7003 91.115 52.1292 90.6928 53.9509 90.6928C55.0038 90.6928 55.9564 90.8087 56.8088 91.0405C57.6778 91.2557 58.3129 91.4957 58.714 91.7606L57.9369 93.7223C57.5859 93.5071 57.0595 93.3001 56.3575 93.1015C55.6723 92.8863 54.8701 92.7787 53.9509 92.7787C53.483 92.7787 53.0484 92.8283 52.6473 92.9277C52.2462 93.027 51.8953 93.176 51.5944 93.3746C51.2936 93.5733 51.0513 93.8299 50.8674 94.1444C50.7003 94.4424 50.6167 94.7983 50.6167 95.2122C50.6167 95.6757 50.7087 96.0647 50.8925 96.3793C51.0763 96.6938 51.3354 96.9752 51.6696 97.2236C52.0039 97.4553 52.3883 97.6705 52.8228 97.8692C53.274 98.0678 53.7671 98.2665 54.3019 98.4651C55.054 98.7631 55.7392 99.0611 56.3575 99.3591C56.9926 99.6571 57.5358 100.013 57.987 100.427C58.455 100.841 58.8143 101.337 59.065 101.917C59.3157 102.48 59.441 103.167 59.441 103.978C59.441 105.484 58.8811 106.643 57.7614 107.454C56.6584 108.265 55.0957 108.671 53.0735 108.671C52.3883 108.671 51.7532 108.621 51.1683 108.522C50.6 108.439 50.0903 108.34 49.639 108.224C49.1878 108.092 48.7951 107.959 48.4608 107.827C48.1433 107.678 47.8926 107.554 47.7087 107.454L48.4357 105.468C48.8201 105.683 49.4051 105.923 50.1906 106.188C50.9761 106.453 51.937 106.585 53.0735 106.585V106.585Z" fill="#303D3F"/>
<path d="M73.981 108.298C73.6969 107.554 73.4295 106.825 73.1788 106.113C72.9281 105.385 72.6691 104.648 72.4017 103.903H64.53L62.9507 108.298H60.4187C61.0872 106.477 61.7139 104.797 62.2989 103.258C62.8838 101.702 63.4521 100.228 64.0036 98.8376C64.5718 97.447 65.1317 96.1227 65.6832 94.8645C66.2347 93.5898 66.8113 92.3317 67.413 91.0901H69.6441C70.2457 92.3317 70.8223 93.5898 71.3738 94.8645C71.9254 96.1227 72.4769 97.447 73.0284 98.8376C73.5966 100.228 74.1732 101.702 74.7582 103.258C75.3431 104.797 75.9698 106.477 76.6383 108.298H73.981ZM71.6997 101.917C71.1649 100.476 70.6301 99.0859 70.0953 97.745C69.5772 96.3875 69.0341 95.088 68.4658 93.8464C67.8809 95.088 67.321 96.3875 66.7862 97.745C66.2681 99.0859 65.75 100.476 65.2319 101.917H71.6997Z" fill="#303D3F"/>
<path d="M78.9948 108.298V91.0901H89.4736V93.1511H81.4265V98.341H88.5711V100.377H81.4265V108.298H78.9948Z" fill="#303D3F"/>
<path d="M92.4568 108.298V91.0901H103.061V93.1511H94.8885V98.2665H102.158V100.278H94.8885V106.237H103.688V108.298H92.4568Z" fill="#303D3F"/>
</svg>
