<svg width="49" height="50" viewBox="0 0 49 50" fill="none" xmlns="http://www.w3.org/2000/svg">
<path d="M39.5428 10.1092C35.5501 6.10698 30.2329 3.90576 24.5821 3.90576C12.9185 3.90576 3.42757 13.3967 3.42757 25.0603C3.42757 28.7862 4.39954 32.4263 6.24818 35.6376L3.24652 46.5961L14.4623 43.6516C17.5497 45.3382 21.0278 46.2244 24.5726 46.2244H24.5821C36.2362 46.2244 45.9368 36.7335 45.9368 25.0699C45.9368 19.4191 43.5355 14.1114 39.5428 10.1092V10.1092ZM24.5821 42.6606C21.4185 42.6606 18.3215 41.8125 15.6248 40.2116L14.9864 39.8304L8.33505 41.5742L10.1075 35.0849L9.68818 34.4179C7.9253 31.6163 7.00098 28.386 7.00098 25.0603C7.00098 15.3693 14.8911 7.47917 24.5917 7.47917C29.2895 7.47917 33.7015 9.30875 37.0176 12.6344C40.3337 15.9601 42.373 20.372 42.3634 25.0699C42.3634 34.7705 34.2732 42.6606 24.5821 42.6606V42.6606ZM34.2256 29.4914C33.7015 29.2245 31.1 27.9476 30.6141 27.7761C30.1281 27.5951 29.7755 27.5093 29.4229 28.0429C29.0703 28.5766 28.0603 29.7582 27.7458 30.1203C27.4409 30.4729 27.1264 30.5205 26.6023 30.2537C23.4958 28.7004 21.4566 27.4807 19.4079 23.9645C18.8647 23.0306 19.951 23.0973 20.9611 21.0772C21.1326 20.7246 21.0469 20.4197 20.9134 20.1529C20.78 19.886 19.7223 17.2846 19.284 16.2269C18.8552 15.1977 18.4168 15.3407 18.0928 15.3216C17.7879 15.3026 17.4353 15.3026 17.0828 15.3026C16.7302 15.3026 16.1584 15.436 15.6725 15.9601C15.1865 16.4937 13.8238 17.7706 13.8238 20.372C13.8238 22.9735 15.7201 25.4891 15.9774 25.8417C16.2442 26.1943 19.7033 31.5306 25.011 33.8271C28.3652 35.2755 29.6802 35.3994 31.3573 35.1516C32.3769 34.9992 34.4829 33.8747 34.9212 32.636C35.3595 31.3972 35.3595 30.3395 35.2261 30.1203C35.1023 29.8821 34.7497 29.7486 34.2256 29.4914Z" fill="#303D3F"/>
</svg>
